# xmcd
#
# Track frame offsets:
#      150
#      18348
#      38156
#      53608
#      76766
#      89483
#      106719
#      125963
#      142420
# 
# Disc length: 2150 seconds
#
# Revision: 3
# Processed by: cddbd v1.5.2PL0 Copyright (c) Steve Scherf et al.
#
# Submitted via: FreeRIP 1.21
#
DISCID=73086409
DTITLE=Julie Wilde - Julie Wilde
DYEAR=2001
DGENRE=Misc
TTITLE0=Way Out Here
TTITLE1=Fifteen Minutes More
TTITLE2=Some Fine Enough Day
TTITLE3=Cowgirl Dream
TTITLE4=Pretty Things
TTITLE5=True Face
TTITLE6=Lay Down Beside Me
TTITLE7=Marie
TTITLE8=White Lightning
EXTD=
EXTT0=
EXTT1=
EXTT2=
EXTT3=
EXTT4=
EXTT5=
EXTT6=
EXTT7=
EXTT8=
PLAYORDER=
